<?xml version="1.0" encoding="utf-8"?>
<!-- Generator: Adobe Illustrator 27.4.0, SVG Export Plug-In . SVG Version: 6.00 Build 0)  -->
<svg version="1.1" id="Layer_1" xmlns="http://www.w3.org/2000/svg" xmlns:xlink="http://www.w3.org/1999/xlink" x="0px" y="0px"
	 viewBox="0 0 300 75" style="enable-background:new 0 0 300 75;" xml:space="preserve">
<style type="text/css">
	.st0{fill:none;stroke:#CDA1C1;stroke-miterlimit:10;}
	.st1{fill:none;stroke:#CBB83C;stroke-miterlimit:10;}
	.st2{fill:#CDA1C1;stroke:#CDA1C1;stroke-miterlimit:10;}
</style>
<path class="st0" d="M171.27,37.56C214,38,256,38,299,37.5"/>
<path class="st0" d="M2,37.5C48,38,94.99,38,140.67,37.55"/>
<path class="st1" d="M270.33,48.97"/>
<g>
	<path class="st2" d="M155.7,12.08c0.06,0,0.11,0.04,0.16,0.12l14.91,25.05c0.11,0.19,0.11,0.51,0,0.69l-14.72,24.74
		c-0.05,0.08-0.1,0.12-0.16,0.12s-0.11-0.04-0.16-0.12l-14.91-25.05c-0.11-0.19-0.11-0.51,0-0.69l14.72-24.74
		C155.58,12.12,155.64,12.08,155.7,12.08 M155.7,11.88c-0.1,0-0.2,0.06-0.28,0.19l-14.72,24.74c-0.15,0.26-0.15,0.68,0,0.94
		l14.91,25.05c0.08,0.13,0.18,0.19,0.28,0.19s0.2-0.06,0.28-0.19l14.72-24.74c0.15-0.26,0.15-0.68,0-0.94l-14.91-25.05
		C155.9,11.94,155.8,11.88,155.7,11.88L155.7,11.88z"/>
</g>
</svg>
