<?xml version="1.0" encoding="utf-8"?>
<!-- Generator: Adobe Illustrator 27.4.0, SVG Export Plug-In . SVG Version: 6.00 Build 0)  -->
<svg version="1.1" id="Layer_1" xmlns="http://www.w3.org/2000/svg" xmlns:xlink="http://www.w3.org/1999/xlink" x="0px" y="0px"
	 viewBox="0 0 1400 700" style="enable-background:new 0 0 1400 700;" xml:space="preserve">
<style type="text/css">
	.st0{clip-path:url(#SVGID_00000119828593591420537630000007692828262199159685_);}
	.st1{fill:url(#SVGID_00000070106472994068623340000017908443602831543210_);}
	.st2{fill:#004674;}
	.st3{fill:#00245E;}
	.st4{fill:#0C003F;}
	.st5{fill:#475D91;}
	.st6{fill:#060046;}
	.st7{fill:#003359;}
	
		.st8{clip-path:url(#SVGID_00000119828593591420537630000007692828262199159685_);fill:#FFD300;stroke:#000000;stroke-miterlimit:10;}
	
		.st9{clip-path:url(#SVGID_00000119828593591420537630000007692828262199159685_);fill:#FFC920;stroke:#000000;stroke-miterlimit:10;}
	
		.st10{clip-path:url(#SVGID_00000119828593591420537630000007692828262199159685_);fill:#EAD400;stroke:#000000;stroke-miterlimit:10;}
	
		.st11{clip-path:url(#SVGID_00000119828593591420537630000007692828262199159685_);fill:#FFE700;stroke:#000000;stroke-miterlimit:10;}
	.st12{fill:none;}
	.st13{font-family:'SegoeScript';}
	.st14{font-size:71px;}
</style>
<g>
	<defs>
		<rect id="SVGID_1_" width="1400" height="700"/>
	</defs>
	<clipPath id="SVGID_00000155829224599507230840000017471826860263071110_">
		<use xlink:href="#SVGID_1_"  style="overflow:visible;"/>
	</clipPath>
	<g style="clip-path:url(#SVGID_00000155829224599507230840000017471826860263071110_);">
		
			<radialGradient id="SVGID_00000170251195962400311050000002811076976188746881_" cx="81.829" cy="642.6896" r="625.1984" gradientTransform="matrix(1.4797 0 0 1.2747 207.4167 -266.7131)" gradientUnits="userSpaceOnUse">
			<stop  offset="0" style="stop-color:#FFFFFF"/>
			<stop  offset="0.0851" style="stop-color:#FFEDD8"/>
			<stop  offset="0.2082" style="stop-color:#FFD5A7"/>
			<stop  offset="0.3345" style="stop-color:#FFC17D"/>
			<stop  offset="0.462" style="stop-color:#FFB05B"/>
			<stop  offset="0.591" style="stop-color:#FFA340"/>
			<stop  offset="0.7222" style="stop-color:#FF9A2D"/>
			<stop  offset="0.8568" style="stop-color:#FF9522"/>
			<stop  offset="1" style="stop-color:#FF931E"/>
		</radialGradient>
		
			<rect x="-801.5" y="-15.5" style="fill:url(#SVGID_00000170251195962400311050000002811076976188746881_);" width="2260" height="1136"/>
		<path d="M1458-15v1135H-801V-15H1458 M1459-16H-802v1137h2261V-16L1459-16z"/>
	</g>
	<g style="clip-path:url(#SVGID_00000155829224599507230840000017471826860263071110_);">
		<rect x="8.5" y="161.5" class="st2" width="183" height="543"/>
		<path d="M191,162v542H9V162H191 M192,161H8v544h184V161L192,161z"/>
	</g>
	<g style="clip-path:url(#SVGID_00000155829224599507230840000017471826860263071110_);">
		<rect x="343.5" y="128.5" class="st3" width="199" height="601"/>
		<path d="M542,129v600H344V129H542 M543,128H343v602h200V128L543,128z"/>
	</g>
	<g style="clip-path:url(#SVGID_00000155829224599507230840000017471826860263071110_);">
		<rect x="248.5" y="302.5" class="st4" width="116" height="427"/>
		<path d="M364,303v426H249V303H364 M365,302H248v428h117V302L365,302z"/>
	</g>
	<g style="clip-path:url(#SVGID_00000155829224599507230840000017471826860263071110_);">
		<rect x="143.5" y="374.5" class="st5" width="162" height="385"/>
		<path d="M305,375v384H144V375H305 M306,374H143v386h163V374L306,374z"/>
	</g>
	<g style="clip-path:url(#SVGID_00000155829224599507230840000017471826860263071110_);">
		<rect x="1212.5" y="71.5" class="st6" width="212" height="662"/>
		<path d="M1424,72v661h-211V72H1424 M1425,71h-213v663h213V71L1425,71z"/>
	</g>
	<g style="clip-path:url(#SVGID_00000155829224599507230840000017471826860263071110_);">
		<rect x="902.5" y="350.5" class="st7" width="223" height="371"/>
		<path d="M1125,351v370H903V351H1125 M1126,350H902v372h224V350L1126,350z"/>
	</g>
	
		<rect x="118.5" y="179.5" style="clip-path:url(#SVGID_00000155829224599507230840000017471826860263071110_);fill:#FFD300;stroke:#000000;stroke-miterlimit:10;" width="19" height="28"/>
	
		<rect x="25.5" y="279.5" style="clip-path:url(#SVGID_00000155829224599507230840000017471826860263071110_);fill:#FFD300;stroke:#000000;stroke-miterlimit:10;" width="15" height="39"/>
	
		<rect x="118.5" y="318.5" style="clip-path:url(#SVGID_00000155829224599507230840000017471826860263071110_);fill:#FFC920;stroke:#000000;stroke-miterlimit:10;" width="33" height="42"/>
	
		<rect x="33.5" y="386.5" style="clip-path:url(#SVGID_00000155829224599507230840000017471826860263071110_);fill:#EAD400;stroke:#000000;stroke-miterlimit:10;" width="34" height="34"/>
	
		<rect x="134.5" y="420.5" style="clip-path:url(#SVGID_00000155829224599507230840000017471826860263071110_);fill:#EAD400;stroke:#000000;stroke-miterlimit:10;" width="9" height="35"/>
	
		<rect x="67.5" y="512.5" style="clip-path:url(#SVGID_00000155829224599507230840000017471826860263071110_);fill:#FFC920;stroke:#000000;stroke-miterlimit:10;" width="11" height="40"/>
	
		<rect x="104.5" y="566.5" style="clip-path:url(#SVGID_00000155829224599507230840000017471826860263071110_);fill:#FFE700;stroke:#000000;stroke-miterlimit:10;" width="33" height="23"/>
	
		<rect x="19.5" y="630.5" style="clip-path:url(#SVGID_00000155829224599507230840000017471826860263071110_);fill:#EAD400;stroke:#000000;stroke-miterlimit:10;" width="31" height="26"/>
	
		<rect x="263.5" y="335.5" style="clip-path:url(#SVGID_00000155829224599507230840000017471826860263071110_);fill:#EAD400;stroke:#000000;stroke-miterlimit:10;" width="9" height="25"/>
	
		<rect x="305.5" y="432.5" style="clip-path:url(#SVGID_00000155829224599507230840000017471826860263071110_);fill:#FFC920;stroke:#000000;stroke-miterlimit:10;" width="18" height="34"/>
	
		<rect x="342.5" y="508.5" style="clip-path:url(#SVGID_00000155829224599507230840000017471826860263071110_);fill:#EAD400;stroke:#000000;stroke-miterlimit:10;" width="13" height="39"/>
	
		<rect x="306.5" y="604.5" style="clip-path:url(#SVGID_00000155829224599507230840000017471826860263071110_);fill:#FFE700;stroke:#000000;stroke-miterlimit:10;" width="32" height="32"/>
	
		<rect x="170.5" y="398.5" style="clip-path:url(#SVGID_00000155829224599507230840000017471826860263071110_);fill:#FFC920;stroke:#000000;stroke-miterlimit:10;" width="29" height="51"/>
	
		<rect x="234.5" y="486.5" style="clip-path:url(#SVGID_00000155829224599507230840000017471826860263071110_);fill:#EAD400;stroke:#000000;stroke-miterlimit:10;" width="43" height="13"/>
	
		<rect x="179.5" y="552.5" style="clip-path:url(#SVGID_00000155829224599507230840000017471826860263071110_);fill:#FFE700;stroke:#000000;stroke-miterlimit:10;" width="13" height="34"/>
	
		<rect x="248.5" y="559.5" style="clip-path:url(#SVGID_00000155829224599507230840000017471826860263071110_);fill:#FFE700;stroke:#000000;stroke-miterlimit:10;" width="24" height="18"/>
	
		<rect x="151.5" y="636.5" style="clip-path:url(#SVGID_00000155829224599507230840000017471826860263071110_);fill:#FFC920;stroke:#000000;stroke-miterlimit:10;" width="19" height="33"/>
	
		<rect x="260.5" y="398.5" style="clip-path:url(#SVGID_00000155829224599507230840000017471826860263071110_);fill:#FFE700;stroke:#000000;stroke-miterlimit:10;" width="20" height="9"/>
	
		<rect x="425.5" y="193.5" style="clip-path:url(#SVGID_00000155829224599507230840000017471826860263071110_);fill:#FFE700;stroke:#000000;stroke-miterlimit:10;" width="33" height="43"/>
	
		<rect x="485.5" y="298.5" style="clip-path:url(#SVGID_00000155829224599507230840000017471826860263071110_);fill:#EAD400;stroke:#000000;stroke-miterlimit:10;" width="37" height="16"/>
	
		<rect x="391.5" y="331.5" style="clip-path:url(#SVGID_00000155829224599507230840000017471826860263071110_);fill:#FFE700;stroke:#000000;stroke-miterlimit:10;" width="14" height="42"/>
	
		<rect x="446.5" y="386.5" style="clip-path:url(#SVGID_00000155829224599507230840000017471826860263071110_);fill:#FFE700;stroke:#000000;stroke-miterlimit:10;" width="37" height="37"/>
	
		<rect x="379.5" y="498.5" style="clip-path:url(#SVGID_00000155829224599507230840000017471826860263071110_);fill:#FFC920;stroke:#000000;stroke-miterlimit:10;" width="41" height="48"/>
	
		<rect x="445.5" y="555.5" style="clip-path:url(#SVGID_00000155829224599507230840000017471826860263071110_);fill:#FFE700;stroke:#000000;stroke-miterlimit:10;" width="27" height="44"/>
	
		<rect x="483.5" y="630.5" style="clip-path:url(#SVGID_00000155829224599507230840000017471826860263071110_);fill:#EAD400;stroke:#000000;stroke-miterlimit:10;" width="28" height="43"/>
	
		<rect x="370.5" y="222.5" style="clip-path:url(#SVGID_00000155829224599507230840000017471826860263071110_);fill:#EAD400;stroke:#000000;stroke-miterlimit:10;" width="35" height="44"/>
	
		<rect x="923.5" y="373.5" style="clip-path:url(#SVGID_00000155829224599507230840000017471826860263071110_);fill:#FFC920;stroke:#000000;stroke-miterlimit:10;" width="67" height="67"/>
	
		<rect x="1055.5" y="423.5" style="clip-path:url(#SVGID_00000155829224599507230840000017471826860263071110_);fill:#EAD400;stroke:#000000;stroke-miterlimit:10;" width="43" height="43"/>
	
		<rect x="935.5" y="600.5" style="clip-path:url(#SVGID_00000155829224599507230840000017471826860263071110_);fill:#FFE700;stroke:#000000;stroke-miterlimit:10;" width="30" height="30"/>
	
		<rect x="1055.5" y="577.5" style="clip-path:url(#SVGID_00000155829224599507230840000017471826860263071110_);fill:#FFE700;stroke:#000000;stroke-miterlimit:10;" width="33" height="27"/>
	
		<rect x="1049.5" y="636.5" style="clip-path:url(#SVGID_00000155829224599507230840000017471826860263071110_);fill:#FFC920;stroke:#000000;stroke-miterlimit:10;" width="18" height="54"/>
	
		<rect x="968.5" y="476.5" style="clip-path:url(#SVGID_00000155829224599507230840000017471826860263071110_);fill:#FFE700;stroke:#000000;stroke-miterlimit:10;" width="25" height="46"/>
	
		<rect x="1255.5" y="228.5" style="clip-path:url(#SVGID_00000155829224599507230840000017471826860263071110_);fill:#FFE700;stroke:#000000;stroke-miterlimit:10;" width="14" height="70"/>
	
		<rect x="1296.5" y="99.5" style="clip-path:url(#SVGID_00000155829224599507230840000017471826860263071110_);fill:#EAD400;stroke:#000000;stroke-miterlimit:10;" width="94" height="34"/>
	
		<rect x="1296.5" y="179.5" style="clip-path:url(#SVGID_00000155829224599507230840000017471826860263071110_);fill:#FFC920;stroke:#000000;stroke-miterlimit:10;" width="32" height="37"/>
	
		<rect x="1350.5" y="339.5" style="clip-path:url(#SVGID_00000155829224599507230840000017471826860263071110_);fill:#FFE700;stroke:#000000;stroke-miterlimit:10;" width="25" height="41"/>
	
		<rect x="1255.5" y="412.5" style="clip-path:url(#SVGID_00000155829224599507230840000017471826860263071110_);fill:#EAD400;stroke:#000000;stroke-miterlimit:10;" width="67" height="43"/>
	
		<rect x="1380.5" y="483.5" style="clip-path:url(#SVGID_00000155829224599507230840000017471826860263071110_);fill:#FFC920;stroke:#000000;stroke-miterlimit:10;" width="33" height="64"/>
	
		<rect x="1251.5" y="615.5" style="clip-path:url(#SVGID_00000155829224599507230840000017471826860263071110_);fill:#FFE700;stroke:#000000;stroke-miterlimit:10;" width="18" height="51"/>
	<g style="clip-path:url(#SVGID_00000155829224599507230840000017471826860263071110_);">
		<rect x="578" y="179.96" class="st12" width="775" height="182.04"/>
		<text transform="matrix(1 0 0 1 578 234.5635)" class="st13 st14">WEATHER FIVE</text>
	</g>
</g>
</svg>
